<svg width="40" height="40" viewBox="0 0 40 40" fill="none" xmlns="http://www.w3.org/2000/svg">
<path d="M39.7559 37.3991L28.1361 25.7794C30.3401 23.0586 31.6667 19.5995 31.6667 15.8334C31.6667 7.10291 24.5638 0 15.8333 0C7.10283 0 0 7.10291 0 15.8334C0 24.5639 7.1029 31.6668 15.8334 31.6668C19.5995 31.6668 23.0586 30.3401 25.7794 28.1362L37.3991 39.7559C37.7247 40.0813 38.2522 40.0813 38.5777 39.7559L39.7559 38.5777C40.0813 38.2522 40.0813 37.7245 39.7559 37.3991ZM15.8334 28.3334C8.94049 28.3334 3.33337 22.7263 3.33337 15.8334C3.33337 8.94049 8.94049 3.33337 15.8334 3.33337C22.7263 3.33337 28.3334 8.94049 28.3334 15.8334C28.3334 22.7263 22.7263 28.3334 15.8334 28.3334Z" fill="black"/>
</svg>
