<svg width="32" height="32" viewBox="0 0 32 32" fill="none" xmlns="http://www.w3.org/2000/svg">
<path d="M25.4934 3.93535C20.2466 -1.3115 11.754 -1.31206 6.5066 3.93535C1.25988 9.182 1.25906 17.6747 6.5066 22.9222L15.2905 31.706C15.6824 32.098 16.3177 32.0979 16.7096 31.706L25.4935 22.9222C30.7401 17.6755 30.7409 9.18282 25.4934 3.93535ZM24.0743 21.5031L16 29.5774L7.92571 21.5031C3.47356 17.051 3.47356 9.80667 7.92571 5.35452C12.3779 0.902438 19.622 0.902313 24.0743 5.35452C28.5264 9.80661 28.5264 17.0509 24.0743 21.5031Z" fill="black"/>
<path d="M16 7.42703C12.683 7.42703 9.99823 10.1112 9.99823 13.4288C9.99823 16.7457 12.6825 19.4305 16 19.4305C19.3171 19.4305 22.0018 16.7461 22.0018 13.4288C22.0018 10.1118 19.3175 7.42703 16 7.42703ZM18.8248 16.2535C18.7863 16.2535 17.8405 17.4235 16 17.4235C13.7922 17.4235 12.0052 15.6369 12.0052 13.4288C12.0052 11.221 13.7919 9.434 16 9.434C19.5865 9.434 21.3104 13.7679 18.8248 16.2535Z" fill="black"/>
</svg>
