<svg width="40" height="40" viewBox="0 0 40 40" fill="none" xmlns="http://www.w3.org/2000/svg">
<path d="M20 0C31.0278 0 40 8.9722 40 20C40 31.0278 31.0278 40 20 40C8.97219 40 0 31.0278 0 20C0 8.9722 8.97219 0 20 0ZM20 37.5C29.6497 37.5 37.5 29.6497 37.5 20C37.5 10.3503 29.6497 2.50001 20 2.50001C10.3503 2.50001 2.50001 10.3503 2.50001 20C2.50001 29.6497 10.3503 37.5 20 37.5Z" fill="#333333"/>
<path d="M18.75 7.5H21.25V20.5175L13.3838 28.3837L11.6162 26.6162L18.75 19.4824V7.5Z" fill="#333333"/>
</svg>
